<?xml version="1.0" standalone="no"?>
<!DOCTYPE svg PUBLIC "-//W3C//DTD SVG 20010904//EN"
 "http://www.w3.org/TR/2001/REC-SVG-20010904/DTD/svg10.dtd">
<svg version="1.0" xmlns="http://www.w3.org/2000/svg"
 width="512.000000pt" height="512.000000pt" viewBox="0 0 512.000000 512.000000"
 preserveAspectRatio="xMidYMid meet">
<metadata>
Created by potrace 1.11, written by Peter Selinger 2001-2013
</metadata>
<g transform="translate(0.000000,512.000000) scale(0.100000,-0.100000)"
fill="#000000" stroke="none">
<path d="M1165 3543 c-128 -27 -259 -99 -354 -193 -178 -180 -270 -415 -277
-715 -9 -318 76 -583 247 -769 93 -101 203 -169 328 -201 85 -22 111 -25 211
-26 191 -2 314 37 522 168 l87 54 -61 102 c-34 56 -64 106 -68 110 -4 4 -56
-17 -117 -47 -151 -77 -253 -101 -353 -85 -183 29 -338 207 -396 455 -11 49
-14 296 -3 354 28 153 97 317 170 405 83 100 196 151 315 142 72 -6 186 -41
204 -63 7 -8 16 -14 21 -14 4 0 38 -19 74 -41 38 -24 70 -38 74 -33 5 5 28 45
51 89 24 44 48 87 53 96 6 9 8 23 5 31 -7 17 -199 117 -283 146 -145 52 -309
65 -450 35z"/>
<path d="M2478 2748 c-2 -7 -4 -157 -3 -333 l0 -320 51 -3 52 -3 0 336 -1 335
-47 0 c-30 0 -49 -5 -52 -12z"/>
<path d="M4519 2758 c-1 -2 -2 -153 -3 -335 l-2 -333 51 0 51 0 -1 333 0 332
-47 3 c-27 2 -49 2 -49 0z"/>
<path d="M3744 2574 c-22 -7 -51 -27 -66 -44 l-28 -30 0 33 c0 33 0 33 -50 33
l-50 1 -1 -38 c0 -22 0 -160 0 -309 0 -148 0 -281 0 -295 1 -23 5 -25 51 -25
l50 0 0 105 c0 58 2 105 5 105 2 0 19 -9 37 -20 58 -35 147 -21 195 31 55 61
78 236 44 337 -34 98 -107 144 -187 116z m41 -90 c31 -12 48 -65 48 -149 1
-134 -47 -200 -122 -169 -59 25 -61 28 -61 133 0 100 5 114 53 169 20 22 50
28 82 16z"/>
<path d="M2064 2561 c-83 -38 -133 -117 -135 -213 -4 -159 68 -253 203 -265
78 -8 137 15 182 70 82 101 81 272 -2 361 -60 63 -167 84 -248 47z m152 -82
c69 -65 59 -269 -15 -309 -83 -44 -150 14 -159 139 -6 92 23 163 76 184 45 18
68 14 98 -14z"/>
<path d="M2810 2559 c-81 -36 -131 -119 -133 -218 -3 -170 98 -273 252 -258
112 12 193 111 194 239 1 92 -17 143 -68 193 -66 67 -158 83 -245 44z m148
-72 c55 -43 70 -189 29 -268 -45 -84 -131 -84 -175 1 -40 78 -23 221 30 259
41 29 85 32 116 8z"/>
<path d="M3400 2573 c-8 -3 -29 -21 -46 -40 -28 -33 -31 -33 -29 -12 3 41 -4
48 -55 46 l-48 -1 0 -238 0 -238 52 0 51 0 0 143 c-1 78 3 153 7 168 12 34 62
63 99 55 28 -5 29 -4 30 32 0 20 2 47 5 60 2 14 -1 22 -10 22 -8 0 -20 2 -28
4 -7 3 -20 2 -28 -1z"/>
<path d="M4120 2559 c-49 -22 -90 -56 -90 -73 0 -6 9 -22 19 -35 18 -24 19
-24 37 -6 70 69 193 51 180 -27 -2 -16 -6 -31 -8 -33 -2 -1 -32 -7 -67 -13
-128 -23 -177 -71 -167 -166 13 -117 127 -169 216 -97 l38 30 16 -24 c21 -32
74 -42 115 -21 31 16 39 39 23 64 -5 7 -15 10 -23 7 -32 -12 -37 9 -41 165 -3
144 -5 158 -26 185 -51 65 -139 83 -222 44z m150 -308 c0 -54 -5 -63 -45 -83
-72 -37 -127 11 -101 89 8 23 22 31 75 39 20 3 38 7 39 9 2 2 10 1 18 -2 9 -3
14 -21 14 -52z"/>
</g>
</svg>
